<?xml version="1.0" standalone="no"?>
<!DOCTYPE svg PUBLIC "-//W3C//DTD SVG 20010904//EN"
 "http://www.w3.org/TR/2001/REC-SVG-20010904/DTD/svg10.dtd">
<svg version="1.0" xmlns="http://www.w3.org/2000/svg"
 width="650.000000pt" height="650.000000pt" viewBox="0 0 650.000000 650.000000"
 preserveAspectRatio="xMidYMid meet">
<metadata>
Created by potrace 1.11, written by Peter Selinger 2001-2013
</metadata>
<g transform="translate(0.000000,650.000000) scale(0.100000,-0.100000)"
fill="#000000" stroke="none">
<path d="M4390 4283 c-240 -4 -651 -23 -720 -34 -88 -13 -175 -56 -231 -112
-125 -125 -167 -393 -156 -1008 6 -335 16 -460 48 -579 66 -244 175 -316 518
-340 393 -29 1703 -22 1994 11 275 30 385 178 416 559 26 320 22 749 -10 1013
-13 112 -52 234 -93 296 -17 25 -53 63 -81 83 -103 79 -198 91 -815 108 -347
9 -481 10 -870 3z m-230 -448 l0 -95 -110 0 -110 0 0 -575 0 -575 -100 0 -100
0 0 575 0 575 -105 0 -105 0 0 95 0 95 315 0 315 0 0 -95z m830 -121 l0 -216
41 37 c52 47 96 65 157 65 87 0 132 -58 151 -194 14 -97 14 -557 1 -650 -12
-82 -33 -122 -80 -153 -61 -42 -155 -23 -228 46 -18 17 -35 31 -38 31 -2 0 -4
-20 -4 -45 l0 -45 -90 0 -90 0 0 670 0 670 90 0 90 0 0 -216z m878 -140 c29
-14 65 -42 82 -62 50 -61 62 -110 67 -289 l6 -163 -182 0 -183 0 4 -136 c3
-135 3 -136 31 -160 34 -29 76 -31 108 -5 21 17 24 30 27 100 l4 81 95 0 96 0
-7 -87 c-9 -103 -29 -154 -82 -205 -94 -90 -261 -92 -359 -6 -95 83 -109 152
-102 490 2 141 9 258 16 279 15 47 58 111 95 140 71 56 198 66 284 23z m-1548
-398 c0 -354 2 -415 15 -426 22 -18 64 -3 102 36 l33 35 0 385 0 384 95 0 95
0 0 -500 0 -500 -95 0 -95 0 0 56 0 56 -42 -42 c-108 -107 -228 -108 -277 -1
-14 31 -16 96 -19 484 l-3 447 95 0 96 0 0 -414z"/>
<path d="M5023 3420 l-33 -20 0 -310 0 -310 33 -20 c58 -36 117 -17 132 42 3
13 5 152 3 309 -3 266 -4 288 -22 308 -24 27 -71 27 -113 1z"/>
<path d="M5685 3415 c-23 -22 -25 -32 -25 -115 l0 -90 85 0 85 0 0 90 c0 83
-2 93 -25 115 -33 34 -87 34 -120 0z"/>
<path d="M463 3949 c-125 -23 -202 -127 -211 -285 -7 -136 34 -240 182 -458
142 -208 171 -284 144 -376 -26 -84 -101 -92 -134 -14 -9 20 -18 68 -21 106
l-6 70 -61 -7 c-34 -3 -79 -8 -100 -12 l-39 -5 7 -85 c16 -215 105 -309 291
-307 67 0 89 5 132 27 83 43 128 128 140 262 11 137 -28 235 -189 474 -112
167 -148 240 -148 304 0 99 45 147 96 104 21 -18 27 -37 36 -100 l11 -77 31 4
c17 3 61 8 99 11 l67 7 0 31 c0 51 -27 161 -49 204 -48 96 -158 144 -278 122z"/>
<path d="M2090 3265 l0 -675 95 0 95 0 0 170 c0 135 3 178 16 208 9 20 18 33
20 27 2 -5 20 -82 39 -170 20 -88 40 -177 46 -197 l10 -38 89 0 c50 0 90 3 90
8 0 4 -36 156 -82 337 l-82 331 63 152 c34 84 64 159 68 168 5 13 -7 14 -83
12 l-89 -3 -52 -150 -52 -150 0 323 -1 322 -95 0 -95 0 0 -675z"/>
<path d="M1137 3576 l-57 -35 0 30 0 29 -95 0 -95 0 0 -680 0 -680 95 0 95 0
2 200 3 199 44 -29 c87 -59 163 -45 211 41 l25 44 0 395 c0 381 -1 396 -21
435 -25 49 -76 85 -119 85 -18 0 -55 -14 -88 -34z m28 -170 c14 -21 15 -65 13
-326 -3 -285 -4 -302 -22 -316 -26 -18 -28 -18 -54 6 -22 20 -22 25 -22 318 0
253 2 301 16 320 20 29 50 28 69 -2z"/>
<path d="M1624 3591 c-22 -10 -55 -36 -72 -57 -59 -71 -62 -95 -62 -436 0
-331 4 -368 49 -433 43 -63 101 -90 191 -89 110 0 165 37 212 139 23 49 23 57
23 375 0 320 0 326 -24 377 -28 63 -85 118 -138 132 -57 16 -133 13 -179 -8z
m140 -166 c24 -24 28 -83 24 -373 l-3 -274 -24 -19 c-30 -24 -46 -24 -71 1
-19 19 -20 33 -20 328 0 262 2 311 16 330 18 25 56 29 78 7z"/>
<path d="M2802 3597 c-46 -14 -115 -94 -135 -157 -24 -75 -25 -619 -1 -699 50
-170 265 -228 389 -105 56 57 75 113 75 226 l0 88 -90 0 -90 0 0 -85 c0 -72
-3 -88 -20 -105 -25 -25 -41 -25 -71 -1 -23 18 -24 26 -27 155 l-4 136 151 0
151 0 0 178 c0 209 -10 253 -74 317 -61 60 -163 82 -254 52z m132 -179 c12
-16 16 -47 16 -115 l0 -93 -60 0 -60 0 0 79 c0 80 11 129 33 143 23 15 56 8
71 -14z"/>
</g>
</svg>
